<?xml version="1.0" encoding="utf-8"?>
<!-- Generator: Adobe Illustrator 17.0.1, SVG Export Plug-In . SVG Version: 6.00 Build 0)  -->
<!DOCTYPE svg PUBLIC "-//W3C//DTD SVG 1.1//EN" "http://www.w3.org/Graphics/SVG/1.1/DTD/svg11.dtd">
<svg version="1.1" id="Layer_1" xmlns="http://www.w3.org/2000/svg" xmlns:xlink="http://www.w3.org/1999/xlink" x="0px" y="0px"
	 width="200px" height="279.333px" viewBox="0 0 200 279.333" enable-background="new 0 0 200 279.333" xml:space="preserve">
<g>
	<path fill="#44D2F2" d="M146.9,91.93c0.07-1.39-0.27-2.43-2-2.8c-7.05-1.51-14.08-3.18-21.12-4.77c-6.5-1.46-13-2.95-19.52-4.32
		c-4.5-0.95-9.04-1.77-13.58-2.57c-0.75-0.13-1.79-0.17-2.33,0.24c-1.79,1.35-2.68,3.25-2.35,5.56c0.28,1.98,1.54,3.04,3.42,3.45
		c3.78,0.81,7.55,1.62,11.32,2.46c0.51,0.12,1.28,0.32,1.4,0.68c0.52,1.44,0.83,2.96,1.29,4.76c-1.2-0.66-1.97-1.24-2.84-1.54
		c-4.91-1.75-9.84-3.43-14.77-5.14c-0.93-0.33-2.5-0.48-2.67-1.04c-0.74-2.46-3.04-2.49-4.68-3.53c-0.49-0.31-0.96-0.68-1.38-1.07
		c-0.63-0.59-1.11-1.55-1.84-1.79c-2.67-0.87-5.44-2.54-8.06,0.15c-2.4-0.53-4.51,0.94-7.17,0.38c-7.31-1.51-14.79-2.2-22.22-3.05
		c-1.76-0.2-3.59,0.23-5.38,0.46c-0.41,0.05-1,0.36-1.14,0.69c-0.68,1.69,0.37,4.93,1.99,5.61c8.2,3.43,16.43,6.77,24.67,10.11
		c2.6,1.06,5.58,1.13,7.74,3.38c2.13,2.21,4.74,2.88,7.82,1.84c1.6-0.53,3.43-0.82,5.09-0.65c3.15,0.33,6.26,1.05,9.38,1.67
		c0.4,0.08,0.89,0.45,1.06,0.81c0.54,1.17,0.96,2.4,1.38,3.49c-1.46,0.27-2.81,0.4-4.07,0.8c-1.25,0.4-2.38,1.2-3.62,1.63
		c-3.36,1.17-5.5,5.27-4.4,8.68c0.17,0.52,0.45,1.04,0.81,1.45c1.09,1.28,2.97,1.8,3.47,3.69c0.07,0.27,0.72,0.47,1.13,0.55
		c2.09,0.4,4.16,0.94,6.26,1.08c5.61,0.36,11.23,0.44,16.84,0.83c6.75,0.46,13.38-0.09,20-2.11c0-1.38-0.24-3.04,0.05-4.59
		c0.39-2.12-0.08-3.34-2.16-4.12c-0.28-0.11-0.56-0.23-0.88-0.35c3.82-3.07,7.55-6.09,11.32-9.06c0.33-0.26,0.93-0.34,1.37-0.27
		c5.91,0.95,11.81,1.96,17.72,2.92c7.26,1.18,14.53,2.38,21.81,3.47c0.04,0.01,0.08,0.01,0.12,0.02
		c-8.5,34.16-39.39,59.48-76.18,59.48c-43.35,0-78.5-35.15-78.5-78.5c0-43.35,35.15-78.5,78.5-78.5s78.5,35.15,78.5,78.5
		c0,3.9-0.28,7.72-0.83,11.47c-4.47-1-8.91-2.1-13.39-3.11c-5.95-1.32-11.92-2.59-17.88-3.88C146.59,94.14,146.85,93.04,146.9,91.93
		z"/>
	<g>
		<path fill="#44D2F2" d="M107.29,109.15c-1.66,0.21-2.89,0.06-3.61-1.57c-0.66-1.52-1.47-2.98-2.3-4.65
			c1.51-0.17,2.84-0.32,4.32-0.49C106.23,104.7,106.74,106.85,107.29,109.15z"/>
		<path fill="#44D2F2" d="M128.65,102.76c-3.8,2.86-7.67,5.77-11.56,8.65c-0.24,0.19-0.7,0.15-1.05,0.11
			c-1.55-0.15-2.41-0.87-2.85-2.54c-1.62-6.11-3.45-12.16-5.27-18.52c4.49,0.78,8.79,1.53,13.36,2.33
			c-2.15,2.53-1.87,5.34,0.19,7.09C123.28,101.4,126.05,101.78,128.65,102.76z"/>
	</g>
</g>
<g>
	<path fill="#D9AB23" d="M27.36,210.498c0.064,2.695,0.192,5.646,2.695,5.646c1.861,0,2.759-1.796,2.759-6.096
		c0-4.876-1.54-6.224-5.582-9.624c-1.604-1.348-5.326-5.069-5.326-11.678c0-5.967,2.246-11.101,8.277-11.101
		c6.16,0,7.956,5.069,8.277,9.368l-5.967,0.77c-0.449-4.748-1.347-4.748-2.246-4.748c-1.54,0-1.989,1.989-1.989,5.134
		c0,3.079,0.706,4.556,4.234,7.507c3.786,3.272,6.673,6.416,6.673,13.218c0,5.325-1.155,12.576-9.047,12.576
		c-7.443,0-8.726-6.225-8.726-10.331L27.36,210.498z"/>
	<path fill="#D9AB23" d="M44.041,220.957v-37.343h-4.748v-5.454h15.848v5.454h-4.684v37.343H44.041z"/>
	<path fill="#D9AB23" d="M68.037,220.957l-1.476-11.806h-5.133l-1.348,11.806h-5.71l6.609-42.797h6.288l6.801,42.797H68.037z
		 M65.983,203.954l-0.963-7.636c-0.256-2.053-1.155-10.459-1.283-11.678c-0.064,1.219-0.128,2.31-0.321,4.299
		c-0.385,4.106-0.449,4.556-0.706,7.443l-0.834,7.571H65.983z"/>
	<path fill="#D9AB23" d="M89.017,220.957l-4.171-18.415h-1.54v18.415H76.89V178.16h7.443c2.631,0,5.39,0.385,7.379,3.016
		c1.347,1.797,2.438,4.234,2.438,9.304c0,8.148-2.502,9.688-3.914,10.522l5.39,19.955H89.017z M83.306,196.96h1.026
		c2.374,0,3.08-1.155,3.08-6.865c0-6.48-1.412-6.48-3.08-6.48h-1.026V196.96z"/>
	<path fill="#D9AB23" d="M107.044,220.957v-37.343h-4.748v-5.454h15.849v5.454h-4.685v37.343H107.044z"/>
	<path fill="#D9AB23" d="M132.323,220.957l-4.171-18.415h-1.54v18.415h-6.416V178.16h7.442c2.631,0,5.391,0.385,7.379,3.016
		c1.348,1.797,2.438,4.234,2.438,9.304c0,8.148-2.502,9.688-3.914,10.522l5.39,19.955H132.323z M126.612,196.96h1.026
		c2.375,0,3.08-1.155,3.08-6.865c0-6.48-1.411-6.48-3.08-6.48h-1.026V196.96z"/>
	<path fill="#D9AB23" d="M142.074,220.957V178.16h14.565v5.454h-8.149v12.19h5.903v5.454h-5.903v14.244h8.727v5.454H142.074z"/>
	<path fill="#D9AB23" d="M172.678,220.957l-5.774-20.083v20.083h-6.224V178.16h6.224v15.784l5.711-15.784h6.096l-7.828,18.223
		l8.405,24.574H172.678z"/>
</g>
<g>
	<path fill="#FFFFFF" d="M40.675,232h2.099c0.768,0,2.339,0.072,2.339,1.848c0,1.451-0.972,1.822-1.367,1.967
		c0.348,0.155,1.103,0.468,1.103,1.739c0,0.743-0.288,1.606-0.923,1.99c-0.72,0.432-1.499,0.456-2.171,0.456h-2.423L40.675,232z
		 M40.771,238.992h0.852c0.66,0,1.871,0,1.871-1.522c0-1.104-0.828-1.14-1.476-1.14h-0.803L40.771,238.992z M41.382,235.37h0.552
		c0.503,0,0.935-0.023,1.283-0.203c0.348-0.192,0.587-0.696,0.587-1.176c0-0.995-0.899-0.995-1.391-0.995h-0.636L41.382,235.37z"/>
	<path fill="#FFFFFF" d="M49.565,239.4c-0.54,0.647-1.307,0.756-1.799,0.756c-0.24,0-0.923-0.072-1.332-0.444
		c-0.563-0.516-0.695-1.343-0.695-2.062c0-1.751,0.744-3.718,2.747-3.718c1.703,0,2.015,1.367,2.015,2.423
		C50.5,236.918,50.417,238.369,49.565,239.4z M47.85,239.257c0.468,0,0.779-0.349,0.959-0.78c0.372-0.899,0.432-1.979,0.432-2.351
		c0-0.359,0-1.295-0.815-1.295c-1.343,0-1.427,2.998-1.427,3.19C46.999,238.345,47.035,239.257,47.85,239.257z"/>
	<path fill="#FFFFFF" d="M55.085,239.4c-0.54,0.647-1.307,0.756-1.799,0.756c-0.24,0-0.923-0.072-1.331-0.444
		c-0.564-0.516-0.696-1.343-0.696-2.062c0-1.751,0.744-3.718,2.747-3.718c1.703,0,2.015,1.367,2.015,2.423
		C56.021,236.918,55.937,238.369,55.085,239.4z M53.37,239.257c0.468,0,0.779-0.349,0.959-0.78c0.372-0.899,0.432-1.979,0.432-2.351
		c0-0.359,0-1.295-0.815-1.295c-1.343,0-1.427,2.998-1.427,3.19C52.519,238.345,52.555,239.257,53.37,239.257z"/>
	<path fill="#FFFFFF" d="M61.085,240h-1.283l-0.684-3.022l-0.924,0.995L57.847,240h-1.199l1.331-8h1.211l-0.768,4.594l2.123-2.507
		H61.9l-1.907,2.039L61.085,240z"/>
	<path fill="#FFFFFF" d="M69.221,238.129c-0.144,0.576-0.528,2.027-2.243,2.027c-1.631,0-2.051-1.235-2.051-2.483
		c0-1.511,0.66-3.741,2.662-3.741c1.092,0,1.955,0.695,1.883,2.146l-1.116,0.096c-0.012-0.432-0.036-1.343-0.803-1.343
		c-1.116,0-1.379,2.11-1.379,2.998c0,0.54,0.096,1.428,0.875,1.428c0.576,0,0.888-0.444,1.115-1.344L69.221,238.129z"/>
	<path fill="#FFFFFF" d="M71.202,232h1.211l-1.343,8h-1.199L71.202,232z"/>
	<path fill="#FFFFFF" d="M75.737,240l0.168-1.031c-0.3,0.516-0.708,1.188-1.799,1.188c-0.852,0-1.403-0.456-1.403-1.271
		c0-0.36,0.048-0.612,0.144-1.212l0.6-3.586h1.199l-0.563,3.383c-0.06,0.348-0.132,0.815-0.132,1.067
		c0,0.168,0.036,0.671,0.635,0.671c0.66,0,1.02-0.623,1.188-1.031c0.192-0.432,0.324-1.271,0.42-1.787l0.384-2.303h1.211L76.792,240
		H75.737z"/>
	<path fill="#FFFFFF" d="M79.578,232h1.211l-0.48,2.807c0.156-0.275,0.492-0.875,1.416-0.875c1.535,0,1.631,1.451,1.631,2.171
		c0,1.415-0.479,4.054-2.542,4.054c-1.151,0-1.403-0.815-1.487-1.104c-0.168,0.312-0.192,0.359-0.443,0.947h-0.648L79.578,232z
		 M81.641,238.44c0.396-1.019,0.456-2.219,0.456-2.53c0-0.264,0-1.079-0.708-1.079c-1.127,0-1.535,2.446-1.535,3.238
		c0,0.611,0.312,1.188,0.804,1.188C81.233,239.257,81.521,238.74,81.641,238.44z"/>
	<path fill="#FFFFFF" d="M90.053,240c-0.036-0.3-0.024-0.456,0.036-0.815c-0.276,0.42-0.636,0.972-1.643,0.972
		c-1.355,0-1.559-1.02-1.559-1.571c0-2.398,2.95-2.279,3.67-2.243c0.06-0.239,0.108-0.504,0.108-0.743
		c0-0.684-0.6-0.815-0.923-0.815c-0.756,0-0.959,0.527-1.127,0.923l-1.067-0.3c0.168-0.468,0.563-1.475,2.23-1.475
		c1.691,0,2.027,1.007,2.027,1.547c0,0.096-0.024,0.432-0.084,0.827l-0.408,2.483c-0.096,0.516-0.108,0.707-0.108,0.875
		c0,0.096,0,0.168,0.024,0.336H90.053z M88.146,238.465c0,0.6,0.36,0.792,0.684,0.792c1.175,0,1.487-1.571,1.607-2.171
		C89.597,237.014,88.146,237.146,88.146,238.465z"/>
	<path fill="#FFFFFF" d="M93.474,234.087h1.055l-0.144,0.876c0.551-0.924,1.223-1.031,1.607-1.031c1.607,0,1.607,1.822,1.607,2.206
		c0,1.439-0.576,4.019-2.458,4.019c-0.959,0-1.235-0.696-1.319-0.936l-0.468,2.782h-1.211L93.474,234.087z M95.849,238.549
		c0.36-0.84,0.492-1.943,0.492-2.579c0-0.539-0.132-1.139-0.755-1.139c-1.164,0-1.511,2.458-1.511,3.214
		c0,0.684,0.312,1.212,0.828,1.212C95.537,239.257,95.801,238.645,95.849,238.549z"/>
	<path fill="#FFFFFF" d="M99.198,234.087h1.055l-0.144,0.876c0.551-0.924,1.223-1.031,1.606-1.031c1.607,0,1.607,1.822,1.607,2.206
		c0,1.439-0.576,4.019-2.458,4.019c-0.959,0-1.235-0.696-1.319-0.936l-0.468,2.782h-1.211L99.198,234.087z M101.572,238.549
		c0.359-0.84,0.491-1.943,0.491-2.579c0-0.539-0.132-1.139-0.755-1.139c-1.164,0-1.511,2.458-1.511,3.214
		c0,0.684,0.312,1.212,0.828,1.212C101.261,239.257,101.524,238.645,101.572,238.549z"/>
	<path fill="#FFFFFF" d="M105.27,232h1.211l-1.343,8h-1.199L105.27,232z"/>
	<path fill="#FFFFFF" d="M107.573,234.087h1.199L107.789,240h-1.199L107.573,234.087z M107.897,231.965h1.271l-0.216,1.283h-1.271
		L107.897,231.965z"/>
	<path fill="#FFFFFF" d="M113.703,238.129c-0.144,0.576-0.527,2.027-2.242,2.027c-1.632,0-2.051-1.235-2.051-2.483
		c0-1.511,0.659-3.741,2.662-3.741c1.092,0,1.955,0.695,1.883,2.146l-1.115,0.096c-0.012-0.432-0.036-1.343-0.804-1.343
		c-1.115,0-1.379,2.11-1.379,2.998c0,0.54,0.096,1.428,0.875,1.428c0.576,0,0.888-0.444,1.115-1.344L113.703,238.129z"/>
	<path fill="#FFFFFF" d="M117.436,240c-0.035-0.3-0.023-0.456,0.036-0.815c-0.275,0.42-0.636,0.972-1.643,0.972
		c-1.355,0-1.56-1.02-1.56-1.571c0-2.398,2.95-2.279,3.67-2.243c0.061-0.239,0.108-0.504,0.108-0.743c0-0.684-0.6-0.815-0.924-0.815
		c-0.756,0-0.959,0.527-1.127,0.923l-1.067-0.3c0.168-0.468,0.563-1.475,2.23-1.475c1.691,0,2.027,1.007,2.027,1.547
		c0,0.096-0.024,0.432-0.084,0.827l-0.408,2.483c-0.096,0.516-0.107,0.707-0.107,0.875c0,0.096,0,0.168,0.023,0.336H117.436z
		 M115.529,238.465c0,0.6,0.359,0.792,0.684,0.792c1.175,0,1.487-1.571,1.607-2.171C116.98,237.014,115.529,237.146,115.529,238.465
		z"/>
	<path fill="#FFFFFF" d="M123.112,235.011h-1.127l-0.468,2.771c-0.036,0.228-0.096,0.647-0.096,0.827
		c0,0.456,0.384,0.528,0.587,0.528c0.049,0,0.288,0,0.6-0.061l-0.155,0.96c-0.288,0.072-0.636,0.096-0.936,0.096
		c-0.684,0-1.344-0.24-1.344-1.127c0-0.36,0.097-0.936,0.132-1.128l0.48-2.866h-0.768l0.155-0.924h0.815l0.288-1.559l1.104-0.061
		l-0.264,1.619h1.151L123.112,235.011z"/>
	<path fill="#FFFFFF" d="M124.337,234.087h1.2L124.553,240h-1.199L124.337,234.087z M124.661,231.965h1.271l-0.216,1.283h-1.271
		L124.661,231.965z"/>
	<path fill="#FFFFFF" d="M129.964,239.4c-0.539,0.647-1.307,0.756-1.799,0.756c-0.24,0-0.924-0.072-1.331-0.444
		c-0.563-0.516-0.696-1.343-0.696-2.062c0-1.751,0.744-3.718,2.747-3.718c1.703,0,2.015,1.367,2.015,2.423
		C130.899,236.918,130.815,238.369,129.964,239.4z M128.249,239.257c0.468,0,0.779-0.349,0.959-0.78
		c0.372-0.899,0.433-1.979,0.433-2.351c0-0.359,0-1.295-0.816-1.295c-1.343,0-1.427,2.998-1.427,3.19
		C127.397,238.345,127.434,239.257,128.249,239.257z"/>
	<path fill="#FFFFFF" d="M132.509,234.087h1.056l-0.18,1.104c0.216-0.468,0.575-1.259,1.751-1.259c1.224,0,1.427,0.852,1.427,1.354
		c0,0.108-0.012,0.517-0.132,1.296L135.855,240h-1.199l0.563-3.37c0.024-0.132,0.12-0.756,0.12-0.995
		c0-0.552-0.336-0.756-0.696-0.756c-0.911,0-1.247,1.127-1.486,2.566L132.725,240h-1.199L132.509,234.087z"/>
	<path fill="#FFFFFF" d="M141.221,235.011h-0.768l0.156-0.924h0.755c0.217-1.175,0.433-2.338,2.1-2.338
		c0.312,0,0.479,0.035,0.659,0.06l-0.155,0.972c-0.12-0.013-0.252-0.024-0.372-0.024c-0.72,0-0.899,0.348-1.031,1.331h1.043
		l-0.156,0.924h-1.031L141.593,240h-1.212L141.221,235.011z"/>
	<path fill="#FFFFFF" d="M147.279,239.4c-0.54,0.647-1.308,0.756-1.799,0.756c-0.24,0-0.924-0.072-1.331-0.444
		c-0.563-0.516-0.696-1.343-0.696-2.062c0-1.751,0.744-3.718,2.747-3.718c1.703,0,2.015,1.367,2.015,2.423
		C148.215,236.918,148.131,238.369,147.279,239.4z M145.564,239.257c0.468,0,0.779-0.349,0.959-0.78
		c0.372-0.899,0.433-1.979,0.433-2.351c0-0.359,0-1.295-0.816-1.295c-1.343,0-1.427,2.998-1.427,3.19
		C144.713,238.345,144.749,239.257,145.564,239.257z"/>
	<path fill="#FFFFFF" d="M149.824,234.087h1.056l-0.216,1.344c0.516-1.031,0.995-1.547,2.087-1.451l-0.216,1.295
		c-0.611-0.023-1.308,0-1.739,1.044c-0.168,0.407-0.42,1.679-0.491,2.135L150.04,240h-1.199L149.824,234.087z"/>
	<path fill="#FFFFFF" d="M153.509,234.087h1.056l-0.18,1.104c0.156-0.384,0.552-1.259,1.631-1.259s1.151,0.923,1.176,1.223
		c0.228-0.503,0.647-1.223,1.655-1.223c0.852,0,1.379,0.552,1.379,1.438c0,0.229-0.036,0.588-0.108,1.02l-0.6,3.61h-1.211
		l0.575-3.442c0.036-0.228,0.12-0.731,0.12-0.983c0-0.516-0.348-0.695-0.6-0.695c-0.923,0-1.151,1.343-1.308,2.291l-0.479,2.83
		h-1.211l0.54-3.19c0.119-0.731,0.167-1.02,0.167-1.235c0-0.527-0.335-0.695-0.552-0.695c-0.935,0-1.234,1.535-1.354,2.255
		l-0.48,2.866h-1.211L153.509,234.087z"/>
</g>
<g>
</g>
<g>
</g>
<g>
</g>
<g>
</g>
<g>
</g>
<g>
</g>
<g>
</g>
<g>
</g>
<g>
</g>
<g>
</g>
<g>
</g>
<g>
</g>
<g>
</g>
<g>
</g>
<g>
</g>
</svg>
